<?xml version="1.0" encoding="utf-8"?>
<?xml-stylesheet type="text/xsl" href="rss1.xsl"?>
<rss version="2.0" xmlns:atom="http://www.w3.org/2005/Atom" xmlns:content="http://purl.org/rss/1.0/modules/content/" xmlns:dc="http://purl.org/dc/elements/1.1/" xmlns:media="http://search.yahoo.com/mrss/">
<channel>
 <title>Getty</title>
 <link>http://www.gettyimg.com/</link>
 <atom:link href="http://www.gettyimg.com/" rel="self" type="application/rss+xml" />

 
                <item>
                <title><![CDATA[【UPSCALED】Katie Melua - Perfect World [4K AI Upscale | HEVC 10-bit | PCM 24-bit 48 kHz]]]></title>
                <link><![CDATA[https://sharemania.us/threads/katie-melua-perfect-world-4k-ai-upscale-hevc-10-bit-pcm-24-bit-48-khz.232366/]]></link>
                <description><![CDATA[<article>
<blockquote class="messageText SelectQuoteContainer ugc baseHtml">
<img src="https://images2.imgbox.com/97/0f/cnuURVw7_o.jpg" class="bbCodeImage LbImage" alt="[​IMG]" data-url="https://images2.imgbox.com/97/0f/cnuURVw7_o.jpg" style=""><br>
<br>
<b>Genre: <span style="color: #0059b3">Folk, World</span><br>
Style: <span style="color: #0059b3">Vocal</span><br>
Year: <span style="color: #0059b3">2016</span> <br>
Video Source: <span style="color: #0059b3">Vimeo, 1080p (AVC 317 MB)</span><br>
Audio Source: <span style="color: #0059b3">Qobuz HiRes, 24-bit 48 kHz</span></b><br>
<br>
"<b>Perfect World</b>" is a song by Georgian and British singer and songwriter Katie Melua. It's the third track on Melua's seventh album "In Winter", released in 2016. The song is written by Katie Melua and Joel Harries.<br>
<br>
The music video for 'A Perfect World' is directed by Karni &amp; Saul from Sulkybunny Productions. They wanted to create something that said: “Well it’s not a perfect world…but have a cup of sweet sugary tea and watch a sugar video and you might feel better ׃)”.<br>
<i>"We took this to Katie and combining it with her passion to tell a story about a parent and child it naturally evolved to this snow/sugar world with a strong visual and emotional pull. We strongly believe that texture, light and dirt are amazingly strong tools to engage a viewer emotionally..combining that with a relationship of mother/child and some dangers along the way makes for a complex and visually engaging piece we hope! ;). We have a young child ourselves so we felt very close to these characters let’s say that."<br>
"Like many music videos, time was not on our side. The whole schedule was 8 weeks, and everything had to be done very quickly and precisely; So the storyboard was actually drawn on a timeline, as an animatic. Modelling and creating the characters was done in parallel with doing the CG animatics. Lastly animating over two weeks and rendering. The whole thing was done on a MacBook Pro, using Maya, Brush, After Effects and rendered on the mind blowing Arnold. The one thing that saved the project was a remote render farm (Rebus render farm kindly supported this project)." </i>source: directorsnotes.com<br>
The music video was released on Katie Melua's YouTube channel on november 10, 2016.<br>
<br>
<b>Release Info</b><br>
The video track is upscaled from 1080p to 4K with Topaz Video AI and encoded to HEVC 10-bit.<br>
The PCM track is lossless (Qobuz, HiRes, 24-bit 48 kHz), synced with Adobe Audition.<br>
The timed lyrics are synced &amp; edited. Enable the subtitles to see the lyrics.<br>
<br>
<div class="ToggleTriggerAnchor bbCodeSpoilerContainer">
<button type="button" class="button bbCodeSpoilerButton ToggleTrigger Tooltip JsOnly" data-target="> .SpoilerTarget"><span>Spoiler: <span class="SpoilerTitle">Media Info</span></span></button>
<div class="SpoilerTarget bbCodeSpoilerText">
<div class="bbCodeBlock bbCodeCode">
<div class="type">Code:</div>
<pre>General
Unique ID                      : 203064061398417119229824568654054275151 (0x98C4B734AE884B535F626D46DFA7B84F)
Complete name                  : Katie Melua - Perfect World.mkv
Format                         : Matroska
Format version                 : Version 4 / Version 2
File size                      : 644 MiB
Duration                       : 4 min 24 s
Overall bit rate               : 20.4 Mb/s
Frame rate                     : 25.000 FPS
Encoded date                   : 2023-11-16 20:01:05 UTC
Writing application            : mkvmerge v80.0 ('Roundabout') 64-bit
Writing library                : libebml v1.4.4 + libmatroska v1.7.1

Video
ID                             : 1
Format                         : HEVC
Format/Info                    : High Efficiency Video Coding
Format profile                 : Main 10@L5@Main
Codec ID                       : V_MPEGH/ISO/HEVC
Duration                       : 4 min 24 s
Bit rate                       : 17.9 Mb/s
Width                          : 3 840 pixels
Height                         : 2 160 pixels
Display aspect ratio           : 16:9
Frame rate mode                : Constant
Frame rate                     : 25.000 FPS
Color space                    : YUV
Chroma subsampling             : 4:2:0
Bit depth                      : 10 bits
Bits/(Pixel*Frame)             : 0.086
Stream size                    : 563 MiB (87%)
Default                        : Yes
Forced                         : No
Color range                    : Limited
Color primaries                : BT.709
Transfer characteristics       : BT.709
Matrix coefficients            : BT.709

Audio #1
ID                             : 2
Format                         : PCM
Format settings                : Little / Signed
Codec ID                       : A_PCM/INT/LIT
Duration                       : 4 min 24 s
Bit rate mode                  : Constant
Bit rate                       : 2 304 kb/s
Channel(s)                     : 2 channels
Sampling rate                  : 48.0 kHz
Frame rate                     : 25.000 FPS (1920 SPF)
Bit depth                      : 24 bits
Stream size                    : 72.7 MiB (11%)
Title                          : Lossless 24-bit 48 kHz
Language                       : English
Default                        : Yes
Forced                         : No

Audio #2
ID                             : 3
Format                         : AAC LC
Format/Info                    : Advanced Audio Codec Low Complexity
Codec ID                       : A_AAC-2
Duration                       : 4 min 24 s
Bit rate                       : 265 kb/s
Channel(s)                     : 2 channels
Channel layout                 : L R
Sampling rate                  : 48.0 kHz
Frame rate                     : 46.875 FPS (1024 SPF)
Compression mode               : Lossy
Stream size                    : 8.34 MiB (1%)
Language                       : English
Default                        : No
Forced                         : No

Text
ID                             : 4
Format                         : UTF-8
Codec ID                       : S_TEXT/UTF8
Codec ID/Info                  : UTF-8 Plain Text
Duration                       : 3 min 15 s
Bit rate                       : 20 b/s
Frame rate                     : 0.102 FPS
Count of elements              : 20
Stream size                    : 512 Bytes (0%)
Title                          : Lyrics
Language                       : English
Default                        : No
Forced                         : No
</pre>
</div></div>
</div><br>
<div class="bbCodeBlock bbCodeVfcHH HiddenContent">
<div class="attribution type">Hidden Content:</div>
<blockquote>You must reply before you can see the hidden data contained here.</blockquote>
</div>
<div class="messageTextEndMarker">&nbsp;</div>
</blockquote>
</article>]]></description>
                <author><![CDATA[ADHDerby]]></author>
                </item>

                
                <item>
                <title><![CDATA[【Requests】[REQ AUD] - DRAKE - FOR ALL THE DOGS SCARY HOURS 24 BIT QOBUZ]]></title>
                <link><![CDATA[https://sharemania.us/threads/drake-for-all-the-dogs-scary-hours-24-bit-qobuz.232367/]]></link>
                <description><![CDATA[<article>
<blockquote class="messageText SelectQuoteContainer ugc baseHtml">
<a href="https://www.qobuz.com/it-it/album/for-all-the-dogs-scary-hours-edition-drake/s71f88o7bphbb" target="_blank" class="externalLink" rel="nofollow">https://www.qobuz.com/it-it/album/for-all-the-dogs-scary-hours-edition-drake/s71f88o7bphbb</a><br>
<br>
HERE'S THE LINK.<br>
<br>
THANKS IN ADVANCE
<div class="messageTextEndMarker">&nbsp;</div>
</blockquote>
</article>]]></description>
                <author><![CDATA[filisp95]]></author>
                </item>

                </channel></rss>